<?xml version="1.0" encoding="UTF-8"?>
<svg id="Layer_1" data-name="Layer 1" xmlns="http://www.w3.org/2000/svg" viewBox="0 0 108 108">
  <defs>
    <style>
      .cls-1 {
        fill: #fcb74b;
      }
    </style>
  </defs>
  <path class="cls-1" d="M78.38,14H29.62c-8.63,0-15.62,7-15.62,15.62v48.75c0,8.63,7,15.62,15.62,15.62h48.75c8.63,0,15.62-7,15.62-15.62V29.62c0-8.63-7-15.62-15.62-15.62Zm-39.01,55.54c0,2.86-2.32,5.18-5.18,5.18h0c-2.86,0-5.18-2.32-5.18-5.18v-10.36c0-2.86,2.32-5.18,5.18-5.18h0c2.86,0,5.18,2.32,5.18,5.18v10.36Zm19.41,0c0,2.86-2.32,5.18-5.18,5.18h0c-2.86,0-5.18-2.32-5.18-5.18v-10.36c0-2.86,2.32-5.18,5.18-5.18h0c2.86,0,5.18,2.32,5.18,5.18v10.36Z"/>
</svg>